<?xml version="1.0" encoding="utf-8"?>
<!-- Generator: Adobe Illustrator 26.2.1, SVG Export Plug-In . SVG Version: 6.00 Build 0)  -->
<svg version="1.1" id="Layer_1" xmlns="http://www.w3.org/2000/svg" xmlns:xlink="http://www.w3.org/1999/xlink" x="0px" y="0px"
	 viewBox="0 0 811.43 172.71" style="enable-background:new 0 0 811.43 172.71;" xml:space="preserve">
<style type="text/css">
	.st0{fill:none;}
	.st1{fill:#FFFFFF;}
	.st2{fill:#00E4AC;}
</style>
<polygon class="st0" points="568.79,215.81 338.12,215.81 490.97,-245.3 721.64,-245.3 "/>
<rect x="320.32" y="20.72" class="st0" width="338.04" height="49.08"/>
<path class="st1" d="M47.09,120.75c0.18-2.39,0.37-4.86,0.55-7.43c0.18-2.57,0.34-5.14,0.48-7.71c0.14-2.57,0.23-5.09,0.28-7.57
	c0.05-2.48,0.07-4.73,0.07-6.75c0-2.94-0.41-5.74-1.24-8.4c-0.83-2.66-2.02-4.98-3.58-6.95c-1.56-1.97-3.51-3.53-5.85-4.68
	c-2.34-1.15-5.12-1.72-8.33-1.72c-1.29,0-2.39,0.09-3.3,0.27c-0.92,0.19-1.84,0.48-2.75,0.9c-0.92,0.41-1.93,0.94-3.03,1.58
	c-1.1,0.74-2.39,1.61-3.85,2.62c0,0.19-0.02,0.53-0.07,1.03c-0.05,0.51-0.07,0.8-0.07,0.9c0,2.02,0.21,4.7,0.62,8.05
	c0.41,3.35,0.85,6.84,1.31,10.46c0.46,3.63,0.92,7.14,1.38,10.53c0.46,3.4,0.69,6.15,0.69,8.26c0,0.18,0,0.55,0,1.1
	s-0.02,1.15-0.07,1.79c-0.05,0.64-0.07,1.24-0.07,1.79s0,0.96,0,1.24c-0.55,1.29-1.22,2.09-2,2.41c-0.78,0.32-1.72,0.48-2.82,0.48
	c-1.1,0.18-1.93-0.6-2.48-2.34c-0.55-1.74-0.96-4.27-1.24-7.57c-0.28-3.3-0.53-7.3-0.76-11.98c-0.23-4.68-0.55-9.82-0.96-15.42
	c-0.41-5.6-1.01-11.54-1.79-17.83c-0.78-6.29-1.91-12.74-3.37-19.34c-0.74-2.57-1.31-4.75-1.72-6.54c-0.41-1.79-0.8-3.39-1.17-4.82
	c-0.37-1.42-0.69-2.89-0.96-4.41c-0.28-1.51-0.6-3.33-0.96-5.44v-0.55c0-0.37,0.23-0.71,0.69-1.03c0.46-0.32,0.99-0.62,1.58-0.9
	s1.19-0.48,1.79-0.62c0.6-0.14,1.08-0.21,1.45-0.21c1.74,4.59,3.14,8.47,4.2,11.63c1.05,3.17,1.9,5.9,2.55,8.19
	c0.64,2.3,1.1,4.22,1.38,5.78c0.28,1.56,0.5,3.08,0.69,4.54c0.18,1.47,0.32,2.98,0.41,4.54c0.09,1.56,0.28,3.44,0.55,5.65
	c4.77-2.94,9.11-4.54,13.01-4.82c3.9-0.28,7.37,0.3,10.4,1.72c3.03,1.42,5.67,3.6,7.92,6.54c2.25,2.94,4.11,6.24,5.58,9.91
	c1.47,3.67,2.59,7.57,3.37,11.7c0.78,4.13,1.28,8.12,1.51,11.98c0.23,3.85,0.14,7.41-0.28,10.67c-0.41,3.26-1.03,5.88-1.86,7.85
	c-0.83,1.97-1.93,3.12-3.3,3.44C50.25,123.62,48.74,122.78,47.09,120.75z"/>
<path class="st1" d="M117.15,63.87c-1.13-1.92-2.5-3.74-4.1-5.48c-1.6-1.73-3.38-3.34-5.34-4.83c-1.96-1.49-4.06-2.69-6.28-3.63
	c-2.23-0.93-4.46-1.53-6.68-1.79c-2.23-0.26-4.49-0.06-6.78,0.6c-4.32,1.25-8.45,3.09-12.38,5.52c-3.93,2.43-7.26,5.38-9.98,8.84
	c-2.72,3.47-4.62,7.31-5.69,11.54c-1.07,4.23-0.9,8.77,0.51,13.61c1.2,4.14,3,7.71,5.39,10.69c2.39,2.99,5.18,5.26,8.36,6.82
	c3.18,1.56,6.65,2.49,10.41,2.79c3.76,0.3,7.67-0.15,11.73-1.32c3.97-1.15,7.66-2.91,11.08-5.29c3.42-2.37,6.28-5.21,8.57-8.51
	c2.29-3.29,3.81-6.96,4.55-11c0.74-4.04,0.46-8.3-0.84-12.8C119.13,67.72,118.28,65.79,117.15,63.87z M112.16,71.62
	c0.37,2.43,0.2,4.91-0.49,7.45c-0.7,2.54-1.77,5.01-3.23,7.39c-1.46,2.38-3.08,4.53-4.87,6.43c-1.79,1.9-3.67,3.5-5.64,4.79
	c-1.97,1.29-3.73,2.06-5.28,2.32c-2.82,0.82-5.63,1.04-8.41,0.65c-2.79-0.39-5.35-1.24-7.7-2.57c-2.34-1.33-4.39-3.1-6.13-5.32
	c-1.74-2.22-3.01-4.69-3.8-7.43c-0.97-3.35-0.99-6.54-0.06-9.59c0.93-3.04,2.43-5.77,4.51-8.19c2.07-2.41,4.55-4.49,7.44-6.24
	c0.75-0.46,1.51-0.88,2.26-1.27c0.22-0.19,0.47-0.36,0.73-0.49c0.72-0.36,1.44-0.7,2.18-1c2.39-1.12,4.76-2.16,7.49-2.3
	c2.79-0.14,5.61,0.32,8.22,1.26c5.07,1.83,8.33,4.37,10.62,8.81C111.15,67.96,111.87,69.73,112.16,71.62z"/>
<path class="st1" d="M122.75,90.28c0-5.78,1.01-10.65,3.03-14.59c2.02-3.95,4.7-7.11,8.05-9.5c3.35-2.39,7.25-4.13,11.7-5.23
	c4.45-1.1,9.11-1.65,13.97-1.65c3.95,0,7.78,0.64,11.5,1.93c3.72,1.29,7.04,3.08,9.98,5.37c2.94,2.29,5.28,5.09,7.02,8.4
	c1.74,3.3,2.62,7.07,2.62,11.29c0,3.67-0.69,6.68-2.06,9.02c-1.38,2.34-3.26,4.18-5.65,5.51c-2.39,1.33-5.03,2.27-7.92,2.82
	s-5.85,0.83-8.88,0.83c-2.94,0-5.94-0.14-9.02-0.41c-3.08-0.28-5.9-0.92-8.47-1.93c-2.57-1.01-4.68-2.52-6.33-4.54
	c-1.65-2.02-2.48-4.86-2.48-8.54c1.93,0,3.79,0.39,5.58,1.17c1.79,0.78,3.6,1.61,5.44,2.48c1.83,0.87,3.67,1.68,5.51,2.41
	c1.74,0.83,3.62,1.24,5.64,1.24c1.47,0,3.42-0.14,5.85-0.41c2.43-0.28,4.73-0.8,6.88-1.58c2.16-0.78,4.01-1.86,5.58-3.24
	c1.56-1.38,2.34-3.12,2.34-5.23c0-3.12-0.69-5.83-2.06-8.12c-1.38-2.29-3.17-4.2-5.37-5.71c-2.2-1.51-4.68-2.68-7.43-3.51
	c-2.75-0.83-5.51-1.24-8.26-1.24c-0.37,0-1.26,0.09-2.68,0.28c-1.42,0.19-3.05,0.48-4.89,0.9c-1.84,0.41-3.76,0.92-5.78,1.51
	c-2.02,0.6-3.88,1.33-5.58,2.2c-1.7,0.87-3.1,1.86-4.2,2.96s-1.65,2.34-1.65,3.72v1.65c0.09,1.01,0.21,2.36,0.34,4.06
	c0.14,1.7,0.25,3.4,0.34,5.09c0.09,1.7,0.23,3.19,0.41,4.47c0.18,1.29,0.28,2.02,0.28,2.2c0.18,1.47,0.5,3.74,0.96,6.82
	c0.46,3.08,0.96,6.52,1.51,10.33c0.55,3.81,1.17,7.82,1.86,12.05c0.69,4.22,1.35,8.24,2,12.05c0.64,3.81,1.22,7.23,1.72,10.26
	c0.5,3.03,0.9,5.23,1.17,6.61c0,0.18,0.02,0.35,0.07,0.48c0.04,0.14,0.07,0.3,0.07,0.48l-0.14,0.28v0.28
	c-0.19,0.28-0.6,0.73-1.24,1.38c-0.74,0.55-1.19,0.92-1.38,1.1h-0.83c-0.92,0-1.88-0.85-2.89-2.55c-1.01-1.7-2.04-3.99-3.1-6.88
	c-1.06-2.89-2.11-6.22-3.17-9.98c-1.06-3.76-2.09-7.66-3.1-11.7c-1.01-4.04-1.93-8.03-2.75-11.98c-0.83-3.95-1.56-7.62-2.2-11.01
	c-0.64-3.39-1.12-6.33-1.45-8.81C122.91,93.03,122.75,91.29,122.75,90.28z"/>
<path class="st1" d="M196.13,90.28c0-5.78,1.01-10.65,3.03-14.59c2.02-3.95,4.7-7.11,8.05-9.5c3.35-2.39,7.25-4.13,11.7-5.23
	c4.45-1.1,9.11-1.65,13.97-1.65c3.95,0,7.78,0.64,11.5,1.93c3.72,1.29,7.04,3.08,9.98,5.37c2.94,2.29,5.28,5.09,7.02,8.4
	c1.74,3.3,2.62,7.07,2.62,11.29c0,3.67-0.69,6.68-2.06,9.02c-1.38,2.34-3.26,4.18-5.65,5.51c-2.39,1.33-5.03,2.27-7.92,2.82
	s-5.85,0.83-8.88,0.83c-2.94,0-5.94-0.14-9.02-0.41c-3.08-0.28-5.9-0.92-8.47-1.93c-2.57-1.01-4.68-2.52-6.33-4.54
	c-1.65-2.02-2.48-4.86-2.48-8.54c1.93,0,3.79,0.39,5.58,1.17c1.79,0.78,3.6,1.61,5.44,2.48c1.83,0.87,3.67,1.68,5.51,2.41
	c1.74,0.83,3.62,1.24,5.64,1.24c1.47,0,3.42-0.14,5.85-0.41c2.43-0.28,4.73-0.8,6.88-1.58c2.16-0.78,4.01-1.86,5.58-3.24
	c1.56-1.38,2.34-3.12,2.34-5.23c0-3.12-0.69-5.83-2.06-8.12c-1.38-2.29-3.17-4.2-5.37-5.71c-2.2-1.51-4.68-2.68-7.43-3.51
	c-2.75-0.83-5.51-1.24-8.26-1.24c-0.37,0-1.26,0.09-2.68,0.28c-1.42,0.19-3.05,0.48-4.89,0.9c-1.84,0.41-3.76,0.92-5.78,1.51
	c-2.02,0.6-3.88,1.33-5.58,2.2c-1.7,0.87-3.1,1.86-4.2,2.96s-1.65,2.34-1.65,3.72v1.65c0.09,1.01,0.21,2.36,0.34,4.06
	c0.14,1.7,0.25,3.4,0.34,5.09c0.09,1.7,0.23,3.19,0.41,4.47c0.18,1.29,0.28,2.02,0.28,2.2c0.18,1.47,0.5,3.74,0.96,6.82
	c0.46,3.08,0.96,6.52,1.51,10.33c0.55,3.81,1.17,7.82,1.86,12.05c0.69,4.22,1.35,8.24,2,12.05c0.64,3.81,1.22,7.23,1.72,10.26
	c0.5,3.03,0.9,5.23,1.17,6.61c0,0.18,0.02,0.35,0.07,0.48c0.04,0.14,0.07,0.3,0.07,0.48l-0.14,0.28v0.28
	c-0.19,0.28-0.6,0.73-1.24,1.38c-0.74,0.55-1.19,0.92-1.38,1.1h-0.83c-0.92,0-1.88-0.85-2.89-2.55c-1.01-1.7-2.04-3.99-3.1-6.88
	c-1.06-2.89-2.11-6.22-3.17-9.98c-1.06-3.76-2.09-7.66-3.1-11.7c-1.01-4.04-1.93-8.03-2.75-11.98c-0.83-3.95-1.56-7.62-2.2-11.01
	c-0.64-3.39-1.12-6.33-1.45-8.81C196.29,93.03,196.13,91.29,196.13,90.28z"/>
<path class="st1" d="M268.02,146.83c0-0.64,0-1.26,0-1.86s0.09-1.1,0.28-1.51c0.18-0.41,0.46-0.76,0.83-1.03
	c0.55-0.18,1.19-0.28,1.93-0.28c1.38,1.56,3.14,3.56,5.3,5.99c2.16,2.43,4.61,4.79,7.37,7.09c2.75,2.29,5.65,4.31,8.67,6.06
	c3.03,1.74,6.1,2.62,9.22,2.62c2.57-0.09,4.77-0.76,6.61-2c1.83-1.24,3.39-2.87,4.68-4.89c1.28-2.02,2.34-4.31,3.17-6.88
	c0.83-2.57,1.49-5.19,2-7.85c0.5-2.66,0.87-5.23,1.1-7.71c0.23-2.48,0.48-4.63,0.76-6.47c0.18-0.92,0.39-2.46,0.62-4.61
	c0.23-2.16,0.46-4.54,0.69-7.16c0.23-2.62,0.41-5.35,0.55-8.19c0.14-2.85,0.11-5.44-0.07-7.78c-0.19-2.34-0.55-4.27-1.1-5.78
	c-0.55-1.51-1.38-2.27-2.48-2.27c-1.56,0-3.21,0.46-4.96,1.38c-1.74,0.92-3.56,1.95-5.44,3.1c-1.88,1.15-3.79,2.18-5.71,3.1
	c-1.93,0.92-3.81,1.38-5.65,1.38c-3.49,0-6.68-0.71-9.57-2.13c-2.89-1.42-5.53-3.28-7.92-5.58c-2.39-2.29-4.5-4.98-6.33-8.05
	c-1.84-3.07-3.37-6.26-4.61-9.57c-1.24-3.3-2.16-6.61-2.75-9.91c-0.6-3.31-0.9-6.42-0.9-9.36c0-0.64-0.07-1.7-0.21-3.17
	c-0.14-1.47-0.12-2.98,0.07-4.54c0.18-1.56,0.6-2.94,1.24-4.13c0.64-1.19,1.65-1.79,3.03-1.79c0.37,0,0.67,0.74,0.9,2.2
	c0.23,1.47,0.5,3.37,0.83,5.71c0.32,2.34,0.73,5.03,1.24,8.05c0.5,3.03,1.17,6.11,2,9.22c0.83,3.12,1.83,6.2,3.03,9.22
	c1.19,3.03,2.66,5.71,4.41,8.05c1.74,2.34,3.83,4.25,6.26,5.71c2.43,1.47,5.21,2.2,8.33,2.2c2.02,0,4.13-0.43,6.33-1.31
	c2.2-0.87,4.29-2,6.26-3.37c1.97-1.38,3.79-2.94,5.44-4.68c1.65-1.83,2.94-3.62,3.85-5.37c0-0.37-0.05-1.24-0.14-2.62
	c-0.09-1.38-0.19-2.96-0.28-4.75c-0.09-1.79-0.19-3.74-0.28-5.85c-0.09-2.11-0.19-4.11-0.28-5.99c-0.09-1.88-0.16-3.51-0.21-4.89
	c-0.05-1.38-0.07-2.25-0.07-2.62c0.18-5.6,0.6-9.02,1.24-10.26c0.64-1.24,1.42-0.85,2.34,1.17c0.92,2.02,1.88,5.42,2.89,10.19
	c1.01,4.77,1.95,10.35,2.82,16.73c0.87,6.38,1.56,13.33,2.06,20.86c0.5,7.53,0.71,15.08,0.62,22.65
	c-0.09,7.57-0.57,14.89-1.45,21.96c-0.87,7.07-2.27,13.33-4.2,18.79c-1.93,5.46-4.45,9.89-7.57,13.29
	c-3.12,3.39-6.98,5.19-11.56,5.37c-1.84,0-4.02-0.34-6.54-1.03c-2.53-0.69-5.07-1.63-7.64-2.82c-2.57-1.2-5.12-2.62-7.64-4.27
	c-2.53-1.65-4.77-3.44-6.75-5.37c-1.98-1.93-3.58-3.95-4.82-6.06C268.64,151.05,268.02,148.94,268.02,146.83z"/>
<path class="st1" d="M377.12,71.46c0-3.39,0.43-6.97,1.31-10.74c0.87-3.76,2.25-7.25,4.13-10.46c1.88-3.21,4.27-5.85,7.16-7.92
	c2.89-2.06,6.45-3.1,10.67-3.1c2.2,0,4.41,0.32,6.61,0.96c2.2,0.64,4.47,1.56,6.82,2.75c2.34,1.19,4.77,2.59,7.3,4.2
	c2.52,1.61,5.21,3.37,8.05,5.3c0.37-3.67,0.23-7.46-0.41-11.36c-0.64-3.9-1.47-7.73-2.48-11.5c-1.01-3.76-2.04-7.32-3.1-10.67
	c-1.06-3.35-1.81-6.35-2.27-9.02c-0.46-2.66-0.51-4.86-0.14-6.61c0.37-1.74,1.47-2.84,3.3-3.3c2.48,1.84,4.61,4.43,6.4,7.78
	c1.79,3.35,3.33,7.23,4.61,11.63c1.28,4.41,2.34,9.11,3.17,14.11c0.83,5,1.51,10.07,2.07,15.21c0.55,5.14,0.99,10.14,1.31,15.01
	c0.32,4.87,0.67,9.34,1.03,13.42c0.37,4.09,0.71,7.57,1.03,10.46c0.32,2.89,0.8,4.93,1.45,6.13c0,1.47-0.53,2.39-1.58,2.75
	c-1.06,0.37-2.13,0.55-3.24,0.55c-0.92,0-1.7-0.34-2.34-1.03c-0.64-0.69-1.15-1.49-1.51-2.41c-0.37-0.92-0.71-1.95-1.03-3.1
	c-0.32-1.15-0.67-2.2-1.03-3.17c-0.37-0.96-0.78-1.77-1.24-2.41c-0.46-0.64-1.06-0.96-1.79-0.96c-0.19,0-0.44,0.02-0.76,0.07
	c-0.32,0.05-0.48,0.12-0.48,0.21c-1.75,2.39-3.79,4.71-6.13,6.95c-2.34,2.25-4.91,4.22-7.71,5.92c-2.8,1.7-5.74,3.05-8.81,4.06
	c-3.08,1.01-6.17,1.51-9.29,1.51c-3.49,0-6.54-1.15-9.16-3.44c-2.62-2.29-4.82-5.05-6.61-8.26c-1.79-3.21-3.12-6.61-3.99-10.19
	C377.56,77.24,377.12,74.12,377.12,71.46z M385.66,73.93c0.92,3.3,1.74,6.2,2.48,8.67c0.73,2.48,1.63,4.5,2.68,6.06
	c1.05,1.56,2.32,2.73,3.79,3.51c1.47,0.78,3.4,1.17,5.78,1.17c2.94,0,6.06-0.85,9.36-2.55c3.3-1.7,6.38-3.88,9.22-6.54
	c2.84-2.66,5.18-5.58,7.02-8.74c1.83-3.17,2.75-6.22,2.75-9.16c0-0.28,0-0.83,0-1.65c0-0.83,0-1.38,0-1.65
	c-4.87-4.77-9.34-8.19-13.42-10.26c-4.08-2.07-7.73-3.12-10.95-3.17c-3.21-0.04-6.01,0.67-8.4,2.13c-2.39,1.47-4.36,3.4-5.92,5.78
	c-1.56,2.39-2.71,5.05-3.44,7.99C385.89,68.47,385.57,71.27,385.66,73.93z"/>
<path class="st1" d="M446.38,81.16c0.09-1.56,0.55-3.35,1.38-5.37c0.83-2.02,2.11-3.99,3.86-5.92c1.74-1.93,3.95-3.65,6.61-5.16
	c2.66-1.51,5.8-2.59,9.43-3.24c3.62-0.64,7.76-0.69,12.39-0.14c4.63,0.55,9.8,1.93,15.49,4.13c0-0.09,0-0.55,0-1.38l-0.14-1.24
	c0-2.39-0.69-4.82-2.06-7.3c-1.38-2.48-3.15-4.7-5.3-6.68c-2.16-1.97-4.47-3.58-6.95-4.82c-2.48-1.24-4.87-1.86-7.16-1.86
	c-0.92,0-1.72,0.14-2.41,0.41s-1.36,0.62-2,1.03c-0.64,0.41-1.26,0.78-1.86,1.1c-0.6,0.32-1.31,0.48-2.13,0.48
	c-0.18,0-0.28-0.05-0.28-0.14c-0.09-0.09-0.18-0.18-0.28-0.28c-0.18-0.18-0.44-0.41-0.76-0.69c-0.32-0.28-0.48-0.46-0.48-0.55
	c0-1.65,0.3-3.07,0.9-4.27c0.6-1.19,1.42-2.16,2.48-2.89c1.05-0.73,2.25-1.31,3.58-1.72c1.33-0.41,2.73-0.62,4.2-0.62
	c3.67,0.37,7.18,1.49,10.53,3.37c3.35,1.88,6.42,4.25,9.22,7.09c2.8,2.85,5.25,6.13,7.37,9.84c2.11,3.72,3.88,7.57,5.3,11.56
	c1.42,3.99,2.36,8.01,2.82,12.05c0.55,4.22,0.6,8.17,0.14,11.84c-0.09,0-0.37-0.02-0.83-0.07c-0.46-0.04-0.96-0.09-1.51-0.14
	c-0.55-0.04-1.01-0.11-1.38-0.21l-0.69-0.14c-1.93-4.31-4.08-7.8-6.47-10.46c-2.39-2.66-4.75-4.75-7.09-6.26
	c-2.34-1.51-4.52-2.57-6.54-3.17c-2.02-0.6-3.67-1.03-4.96-1.31c-1.38,0-3.01,0.09-4.89,0.28c-1.88,0.19-3.83,0.51-5.85,0.96
	c-2.02,0.46-4.06,1.08-6.13,1.86c-2.07,0.78-3.9,1.72-5.51,2.82c-1.61,1.1-2.89,2.41-3.86,3.92c-0.96,1.51-1.45,3.28-1.45,5.3
	c0,2.2,0.87,4.06,2.62,5.58c1.74,1.51,3.86,2.75,6.33,3.72c2.48,0.96,5,1.63,7.57,2c2.57,0.37,4.63,0.55,6.2,0.55
	c2.57,0,5.09-0.14,7.57-0.41s4.93-0.6,7.37-0.96c2.43-0.37,4.84-0.69,7.23-0.96c2.39-0.28,4.77-0.41,7.16-0.41c0.18,0,0.5,0,0.96,0
	c0.46,0,0.94,0.02,1.45,0.07c0.5,0.05,0.96,0.07,1.38,0.07s0.71,0,0.9,0c0.73,0.28,1.15,0.69,1.24,1.24
	c0.09,0.55,0.14,1.1,0.14,1.65s-0.58,1.15-1.72,1.79c-1.15,0.64-2.64,1.29-4.47,1.93c-1.84,0.64-3.88,1.31-6.13,2
	c-2.25,0.69-4.41,1.26-6.47,1.72c-2.06,0.46-3.99,0.85-5.78,1.17c-1.79,0.32-3.05,0.48-3.79,0.48c-3.85,0-7.94-0.32-12.25-0.96
	c-4.32-0.64-8.26-1.81-11.84-3.51c-3.58-1.7-6.54-4.06-8.88-7.09C447.55,89.84,446.38,85.94,446.38,81.16z"/>
<path class="st1" d="M511.6,136.63c0-0.64,0-1.26,0-1.86s0.09-1.1,0.28-1.51c0.18-0.41,0.46-0.76,0.83-1.03
	c0.55-0.18,1.19-0.28,1.93-0.28c1.38,1.56,3.14,3.56,5.3,5.99c2.16,2.43,4.61,4.79,7.37,7.09c2.75,2.29,5.65,4.31,8.67,6.06
	c3.03,1.74,6.1,2.62,9.22,2.62c2.57-0.09,4.77-0.76,6.61-2c1.83-1.24,3.39-2.87,4.68-4.89c1.28-2.02,2.34-4.31,3.17-6.88
	c0.83-2.57,1.49-5.19,2-7.85c0.5-2.66,0.87-5.23,1.1-7.71c0.23-2.48,0.48-4.63,0.76-6.47c0.18-0.92,0.39-2.46,0.62-4.61
	c0.23-2.16,0.46-4.54,0.69-7.16c0.23-2.62,0.41-5.35,0.55-8.19c0.14-2.85,0.11-5.44-0.07-7.78c-0.18-2.34-0.55-4.27-1.1-5.78
	c-0.55-1.51-1.38-2.27-2.48-2.27c-1.56,0-3.21,0.46-4.96,1.38c-1.75,0.92-3.56,1.95-5.44,3.1c-1.88,1.15-3.79,2.18-5.71,3.1
	c-1.93,0.92-3.81,1.38-5.64,1.38c-3.49,0-6.68-0.71-9.57-2.13c-2.89-1.42-5.53-3.28-7.92-5.58c-2.39-2.29-4.5-4.98-6.33-8.05
	c-1.84-3.07-3.37-6.26-4.61-9.57c-1.24-3.3-2.16-6.61-2.75-9.91c-0.6-3.31-0.89-6.42-0.89-9.36c0-0.64-0.07-1.7-0.21-3.17
	c-0.14-1.47-0.12-2.98,0.07-4.54c0.18-1.56,0.6-2.94,1.24-4.13c0.64-1.19,1.65-1.79,3.03-1.79c0.37,0,0.67,0.74,0.9,2.2
	c0.23,1.47,0.5,3.37,0.83,5.71c0.32,2.34,0.73,5.03,1.24,8.05c0.5,3.03,1.17,6.11,2,9.22c0.83,3.12,1.83,6.2,3.03,9.22
	c1.19,3.03,2.66,5.71,4.41,8.05c1.74,2.34,3.83,4.25,6.26,5.71c2.43,1.47,5.21,2.2,8.33,2.2c2.02,0,4.13-0.43,6.33-1.31
	c2.2-0.87,4.29-2,6.26-3.37c1.97-1.38,3.79-2.94,5.44-4.68c1.65-1.83,2.94-3.62,3.86-5.37c0-0.37-0.05-1.24-0.14-2.62
	c-0.09-1.38-0.18-2.96-0.28-4.75c-0.09-1.79-0.18-3.74-0.28-5.85c-0.09-2.11-0.18-4.11-0.28-5.99c-0.09-1.88-0.16-3.51-0.21-4.89
	c-0.05-1.38-0.07-2.25-0.07-2.62c0.18-5.6,0.6-9.02,1.24-10.26c0.64-1.24,1.42-0.85,2.34,1.17c0.92,2.02,1.88,5.42,2.89,10.19
	c1.01,4.77,1.95,10.35,2.82,16.73c0.87,6.38,1.56,13.33,2.07,20.86c0.5,7.53,0.71,15.08,0.62,22.65
	c-0.09,7.57-0.58,14.89-1.45,21.96c-0.87,7.07-2.27,13.33-4.2,18.79c-1.93,5.46-4.45,9.89-7.57,13.29
	c-3.12,3.39-6.98,5.19-11.56,5.37c-1.84,0-4.02-0.34-6.54-1.03c-2.53-0.69-5.07-1.63-7.64-2.82c-2.57-1.2-5.12-2.62-7.64-4.27
	c-2.53-1.65-4.77-3.44-6.75-5.37c-1.97-1.93-3.58-3.95-4.82-6.06C512.22,140.85,511.6,138.74,511.6,136.63z"/>
<path class="st1" d="M568.79,79.68c0.73-0.55,1.4-0.9,2-1.03c0.6-0.14,1.26-0.21,2-0.21c0.83,0,1.65,0.21,2.48,0.62
	s1.58,0.92,2.27,1.51c0.69,0.6,1.4,1.17,2.13,1.72c0.73,0.55,1.51,1.01,2.34,1.38c2.39,1.01,4.29,1.84,5.71,2.48
	c1.42,0.64,2.73,1.15,3.92,1.51c1.19,0.37,2.57,0.6,4.13,0.69c1.56,0.09,3.58,0.14,6.06,0.14c1.93,0,4.27,0.02,7.02,0.07
	c2.75,0.05,5.37-0.18,7.85-0.69c2.48-0.5,4.59-1.42,6.33-2.75c1.74-1.33,2.62-3.37,2.62-6.13c0.09-2.66-0.62-4.75-2.13-6.26
	c-1.51-1.51-3.56-2.68-6.13-3.51c-2.57-0.83-5.46-1.4-8.67-1.72c-3.21-0.32-6.52-0.67-9.91-1.03c-3.4-0.37-6.72-0.9-9.98-1.58
	c-3.26-0.69-6.17-1.77-8.74-3.24c-2.57-1.47-4.64-3.49-6.2-6.06c-1.56-2.57-2.39-5.87-2.48-9.91c0.55-2.94,2-5.39,4.34-7.37
	c2.34-1.97,5.14-3.49,8.4-4.54c3.26-1.05,6.72-1.6,10.39-1.65c3.67-0.04,7.04,0.41,10.12,1.38c3.07,0.96,5.64,2.5,7.71,4.61
	c2.06,2.11,3.14,4.73,3.24,7.85c0.18,1.84,0.04,3.35-0.41,4.54c-0.46,1.19-1.08,2.09-1.86,2.68c-0.78,0.6-1.58,0.87-2.41,0.83
	c-0.83-0.05-1.47-0.37-1.93-0.96c-0.46-0.6-0.67-1.47-0.62-2.62c0.04-1.15,0.57-2.59,1.58-4.34c-0.37-1.74-1.42-3.12-3.17-4.13
	c-1.75-1.01-3.76-1.72-6.06-2.13c-2.3-0.41-4.75-0.5-7.37-0.28c-2.62,0.23-5,0.71-7.16,1.45c-2.16,0.74-3.9,1.7-5.23,2.89
	c-1.33,1.19-1.91,2.57-1.72,4.13c0,2.75,0.8,4.89,2.41,6.4c1.6,1.51,3.69,2.68,6.26,3.51c2.57,0.83,5.53,1.42,8.88,1.79
	c3.35,0.37,6.79,0.71,10.33,1.03c3.53,0.32,6.95,0.78,10.26,1.38c3.3,0.6,6.29,1.58,8.95,2.96c2.66,1.38,4.77,3.24,6.33,5.58
	c1.56,2.34,2.34,5.39,2.34,9.16c0,2.85-0.74,5.3-2.2,7.37c-1.47,2.07-3.33,3.79-5.58,5.16c-2.25,1.38-4.71,2.39-7.37,3.03
	c-2.66,0.64-5.19,0.96-7.57,0.96c-2.39,0-4.93-0.02-7.64-0.07c-2.71-0.04-5.46-0.21-8.26-0.48c-2.8-0.28-5.62-0.71-8.47-1.31
	c-2.85-0.6-5.49-1.51-7.92-2.75c-2.43-1.24-4.61-2.82-6.54-4.75S569.98,82.61,568.79,79.68z"/>
<path class="st2" d="M665.86,127.59c0-4.04,0.78-7.96,2.34-11.77c1.56-3.81,3.69-7.18,6.4-10.12c2.71-2.94,5.85-5.28,9.43-7.02
	c3.58-1.74,7.39-2.62,11.43-2.62c1.83,0,3.79,0.21,5.85,0.62c2.06,0.41,4.01,1.08,5.85,2c1.84,0.92,3.35,2.13,4.54,3.65
	c1.19,1.51,1.79,3.42,1.79,5.71c0,0.37-0.12,1.1-0.34,2.2c-0.23,1.1-0.53,2.2-0.89,3.3c-0.37,1.1-0.8,2.09-1.31,2.96
	c-0.5,0.87-0.94,1.31-1.31,1.31c0-4.31-1.19-7.92-3.58-10.81c-2.39-2.89-5.88-4.34-10.46-4.34c-3.49,0-6.61,0.74-9.36,2.2
	c-2.75,1.47-5.05,3.4-6.88,5.78c-1.84,2.39-3.24,5.07-4.2,8.05c-0.96,2.98-1.45,6.04-1.45,9.16c0,4.22,0.69,7.71,2.06,10.46
	c1.38,2.75,3.26,4.98,5.65,6.68c2.39,1.7,5.14,2.96,8.26,3.79c3.12,0.83,6.42,1.38,9.91,1.65c3.49,0.28,6.97,0.37,10.46,0.28
	c3.49-0.09,6.84-0.23,10.05-0.41c0.28,0,0.73,0.18,1.38,0.55c0.64,0.37,1.1,0.6,1.38,0.69v0.41c0,0.18,0.02,0.28,0.07,0.28
	c0.04,0,0.07,0.05,0.07,0.14c0,1.01-0.5,1.88-1.51,2.62c-1.01,0.74-2.25,1.33-3.72,1.79c-1.47,0.46-3.08,0.78-4.82,0.96
	c-1.75,0.18-3.47,0.34-5.16,0.48c-1.7,0.14-3.19,0.21-4.47,0.21c-1.29,0-2.2,0-2.75,0c-5.32,0-10.12-0.6-14.39-1.79
	c-4.27-1.19-7.9-3.05-10.88-5.58c-2.98-2.52-5.3-5.74-6.95-9.64C666.69,137.53,665.86,132.91,665.86,127.59z"/>
<path class="st2" d="M720.43,129.22c0-5.05,1.1-9.45,3.3-13.22c2.2-3.76,5.09-6.93,8.67-9.5c3.58-2.57,7.59-4.47,12.05-5.71
	c4.45-1.24,8.93-1.86,13.42-1.86c2.39,0,4.61,0.44,6.68,1.31c2.06,0.87,4.04,2.07,5.92,3.58c1.88,1.51,3.56,3.26,5.03,5.23
	c1.47,1.98,2.73,4.02,3.79,6.13c1.05,2.11,1.86,4.25,2.41,6.4c0.55,2.16,0.83,4.25,0.83,6.26c0,4.68-0.92,8.86-2.75,12.53
	c-1.84,3.67-4.32,6.77-7.43,9.29c-3.12,2.53-6.66,4.45-10.6,5.78c-3.95,1.33-7.99,2-12.12,2c-4.22,0-8.1-0.67-11.63-2
	c-3.53-1.33-6.61-3.19-9.22-5.58c-2.62-2.39-4.66-5.35-6.13-8.88C721.16,137.46,720.43,133.53,720.43,129.22z M727.18,128.12
	c0,2.85,0.53,5.58,1.58,8.19c1.05,2.62,2.52,4.89,4.41,6.82c1.88,1.93,4.11,3.46,6.68,4.61c2.57,1.15,5.32,1.72,8.26,1.72
	c1.56,0.18,3.46-0.07,5.71-0.76c2.25-0.69,4.5-1.7,6.75-3.03c2.25-1.33,4.41-2.94,6.47-4.82c2.07-1.88,3.79-3.95,5.16-6.2
	c1.38-2.25,2.22-4.59,2.55-7.02c0.32-2.43-0.09-4.86-1.24-7.3c-1.15-2.43-3.24-4.77-6.26-7.02c-3.03-2.25-7.21-4.34-12.53-6.26
	c-3.03,0-6.17,0.44-9.43,1.31c-3.26,0.87-6.22,2.18-8.88,3.92c-2.66,1.74-4.87,3.95-6.61,6.61
	C728.05,121.56,727.18,124.63,727.18,128.12z"/>
<path class="st2" d="M792.71,144.09c0-0.73,0.3-1.83,0.9-3.3c0.6-1.47,1.31-2.96,2.13-4.47s1.67-2.82,2.55-3.92
	c0.87-1.1,1.63-1.65,2.27-1.65c1.83,0,3.44,0.48,4.82,1.45c1.38,0.96,2.5,2.18,3.37,3.65c0.87,1.47,1.54,3.08,2,4.82
	c0.46,1.74,0.69,3.35,0.69,4.82c0,1.1-0.32,2.34-0.96,3.72c-0.64,1.38-1.45,2.66-2.41,3.85c-0.96,1.19-2.04,2.2-3.24,3.03
	c-1.19,0.83-2.39,1.24-3.58,1.24c-1.38,0-2.57-0.48-3.58-1.45c-1.01-0.96-1.91-2.16-2.69-3.58c-0.78-1.42-1.35-2.89-1.72-4.41
	C792.89,146.36,792.71,145.1,792.71,144.09z"/>
<path class="st1" d="M103.12,57.62c-11.25-5.96-24.94-3.05-30.49,6.5c-0.9,1.55-1.56,3.23-1.94,4.98c-0.05,0.23,0.01,0.49,0.18,0.7
	c0.12,0.15,0.28,0.26,0.46,0.34c0.07,0.03,0.15,0.05,0.23,0.06c0.55,0.09,1.1,0.14,1.64,0.22c-1.7,3.41-2,7.33-0.8,11.19
	c0.09,0.29,0.33,0.52,0.62,0.63c0.16,0.06,0.34,0.09,0.52,0.07c2.34-0.27,4.58-0.87,6.63-1.76c-0.49,4.54,1.44,9.29,5.31,12.79
	c0.1,0.09,0.22,0.16,0.34,0.21c0.12,0.05,0.26,0.07,0.39,0.08c5.21,0.03,9.86-2.16,12.56-5.84c0.92,2.04,2.16,4,3.7,5.78
	c0.12,0.13,0.27,0.24,0.43,0.3c0.29,0.11,0.62,0.1,0.88-0.05c3.49-2.04,5.92-5.13,6.97-8.78c0.45,0.32,0.9,0.65,1.36,0.95
	c0.23,0.15,0.51,0.21,0.77,0.17c0.26-0.04,0.48-0.19,0.6-0.39c2.69-4.62,3.09-10.1,1.14-15.41
	C112.66,65.03,108.58,60.52,103.12,57.62L103.12,57.62z M74.35,65.03c4.67-8.02,15.59-10.92,25.32-7.14
	c0.88,0.34,1.75,0.74,2.6,1.19c0.67,0.35,1.31,0.73,1.93,1.14c-8.03,6.99-19.62,10.1-31.39,8.44C73.17,67.4,73.68,66.18,74.35,65.03
	L74.35,65.03z M91.6,78.66c-2.27-2.53-3.61-5.57-3.85-8.67c2.84-0.56,5.59-1.38,8.18-2.48c1.16,2.57,2.65,5.03,4.37,7.36
	C98.03,77,94.99,78.34,91.6,78.66L91.6,78.66z M74.01,80.46c-0.85-3.43-0.39-6.86,1.27-9.82c3.6,0.31,7.15,0.18,10.58-0.34
	c0.11,1.04,0.32,2.08,0.65,3.09C83.62,77.12,79.13,79.67,74.01,80.46L74.01,80.46z M86.45,91.9c-3.61-3.45-5.16-8.16-4.11-12.46
	c1.9-1.08,3.58-2.43,4.98-4.01c0.79,1.66,1.87,3.24,3.22,4.65c0.11,0.12,0.25,0.21,0.4,0.27c0.15,0.06,0.31,0.09,0.47,0.07
	c1.95-0.13,3.81-0.56,5.52-1.25c-0.03,2.11,0.3,4.24,0.96,6.32C95.77,89.37,91.44,91.79,86.45,91.9L86.45,91.9z M103.35,91.89
	c-3.23-4.05-4.82-8.96-4.44-13.65c0.93-0.53,1.79-1.15,2.57-1.84c2.19,2.71,4.73,5.21,7.57,7.4
	C108.28,87.09,106.29,89.93,103.35,91.89L103.35,91.89z M112.21,84.01c-6.49-4.46-11.64-10.53-14.62-17.24
	c2.99-1.44,5.76-3.25,8.2-5.41c3.23,2.51,5.66,5.74,7.01,9.38C114.47,75.28,114.26,79.96,112.21,84.01L112.21,84.01z"/>
</svg>
